<svg id="Capa_1" enable-background="new 0 0 512 512" height="512" viewBox="0 0 512 512" width="512" xmlns="http://www.w3.org/2000/svg"><g><path d="m512 256c0 13.86-1.11 27.48-3.23 40.74-144.65 123.56-358.09 122.14-501.08-3.34l-5.64-4.95c-.62-4.76-1.09-9.55-1.42-14.39-.42-5.96-.63-11.99-.63-18.06 0-46.22 12.25-89.57 33.68-127 44.12-77.07 127.16-129 222.32-129s178.2 51.93 222.32 129c12.98 22.67 22.59 47.52 28.15 73.86 3.46 16.36 5.35 33.28 5.52 50.62.01.84.01 1.68.01 2.52z" fill="#92eaff"/><g><path d="m512 256c0 13.86-1.1 27.46-3.22 40.73-144.65 123.57-358.1 122.15-501.09-3.33l-5.64-4.95c-1.35-10.63-2.05-21.46-2.05-32.45 0-46.22 12.25-89.57 33.68-127 25.13 43.9 62.9 79.65 108.34 102.27 16.83 8.39 34.71 14.98 53.4 19.52 19.42 4.71 39.71 7.21 60.58 7.21 40.95 0 79.65-9.61 113.98-26.73 45.44-22.62 83.21-58.37 108.34-102.27 21.43 37.43 33.68 80.78 33.68 127z" fill="#63dbfa"/></g><g><path d="m500.89 330.8c-4.3 14.08-9.77 27.65-16.31 40.58l-.87.54c-139.17 85.91-314.84 86.18-454.27.69l-2.01-1.23c-6.55-12.93-12.02-26.49-16.32-40.58z" fill="#b6e337"/><path d="m500.89 330.8c-4.3 14.08-9.77 27.65-16.31 40.58l-.87.54c-69.78 43.08-148.74 64.62-227.71 64.62v-105.74z" fill="#6cdc2d"/><path d="m484.58 371.38c-10.55 20.86-23.87 40.08-39.47 57.17l-110.33 48.89c-49.68 22.02-106.34 22.1-156.09.24l-111.8-49.13c-14.46-15.84-26.96-33.5-37.1-52.61-.8-1.51-1.59-3.03-2.36-4.56z" fill="#fff"/><path d="m484.58 371.38c-10.55 20.86-23.87 40.08-39.47 57.17l-110.33 48.89c-24.83 11.01-51.41 16.54-77.99 16.58v-122.64z" fill="#dff7fd"/><g><path d="m445.11 428.55c-18.71 20.5-40.71 37.94-65.17 51.49-36.72 20.37-78.98 31.96-123.94 31.96s-87.22-11.59-123.94-31.96c-24.46-13.55-46.46-30.99-65.17-51.49z" fill="#dff7fd"/><path d="m445.11 428.55c-46.66 51.1-113.74 83.22-188.32 83.45v-83.45z" fill="#c5f2f9"/></g><g><path d="m506.46 309.24-192.77 16.59c-38.39 3.31-76.99 3.31-115.38 0l-192.76-16.6c54.49-20.03 101.61-50.77 136.47-77.96 4.54-3.54 8.87-7.02 12.98-10.41 21.23-17.51 36.64 7.42 44.73-.88 4.28-4.38 10.15-6.85 16.27-6.85h80c6.12 0 11.99 2.47 16.27 6.85 7.6 7.79 21.65-18.44 40.92-2.29 5.22 4.38 10.83 8.93 16.79 13.58 34.86 27.2 81.99 57.94 136.48 77.97z" fill="#7e7f92"/><path d="m506.46 309.24-192.77 16.59c-38.39 3.31-76.99 3.31-115.38 0l-73.84-6.36c17.78-13.03 46.74-36.83 70.95-68.68 7.08-9.31 13.75-19.31 19.62-29.93 9.44-17.08 14.86 6.42 18.14-1.88 1.74-4.38 4.12-6.85 6.6-6.85h56.22c6.12 0 11.99 2.47 16.27 6.85 7.6 7.79 21.65-17.44 40.92-1.29 5.22 4.38 10.83 8.93 16.79 13.58 34.86 27.2 81.99 57.94 136.48 77.97z" fill="#6e6f83"/><path d="m506.46 309.24-192.77 16.59c-19.19 1.65-38.44 2.48-57.69 2.48v-119.18h40c6.12 0 11.99 2.47 16.27 6.85 7.6 7.79 21.65-14.44 40.92 1.71 5.22 4.38 10.83 8.93 16.79 13.58 34.86 27.2 81.99 57.94 136.48 77.97z" fill="#605f74"/></g><g><path d="m164.571 162.067c-.054.01-.109.018-.163.027 0 .152.072.092.163-.027z" fill="#fff"/><path d="m164.571 162.067c.144-.025.29-.047.433-.073l-.004-.327c0-.293-.254.17-.429.4z" fill="#fff"/><path d="m353.19 217.69c-.77 2.21-1.54 4.41-2.55 6.5-2.3 4.74-6.53 9.21-11.8 9.27-9.52.12-14.86-12.1-23.14-3.24-7.43 7.94-11.85 18.23-24.37 19.34-5.16.46-10.47-1.25-14.38-4.63-4.69-4.05-7.3-10.2-12.35-13.77-3.23-2.28-6.06-3.25-8.6-3.3-11.42-.23-17.21 17.82-28.65 16.67-8.02-.81-12.18-8.74-17.93-14.07-2.53-2.35-5.37-4.19-8.98-4.7-12.83-1.8-18.74 12.41-32.3 7.44-4.77-1.75-8.93-7.01-13.14-12.34 8.57-7.07 16.19-13.73 22.75-19.71 9.72-8.86 17.15-16.22 21.98-21.17 4.28-4.38 10.15-6.85 16.27-6.85h80c6.12 0 11.99 2.47 16.27 6.85 5.15 5.28 13.26 13.3 23.94 22.94 5.09 4.6 10.77 9.56 16.98 14.77z" fill="#dff7fd"/><path d="m353.19 217.69c-.77 2.21-1.54 4.41-2.55 6.5-2.3 4.74-6.53 9.21-11.8 9.27-9.52.12-14.86-12.1-23.14-3.24-7.43 7.94-11.85 18.23-24.37 19.34-5.16.46-10.47-1.25-14.38-4.63-4.69-4.05-7.3-10.2-12.35-13.77-3.23-2.28-6.06-3.25-8.6-3.3-11.42-.23-17.21 17.82-28.65 16.67-8.02-.81-12.18-8.74-17.93-14.07 1.94-3.14 3.82-6.34 5.62-9.6 9.44-17.08 14.86-32.58 18.14-40.88 1.74-4.38 4.12-6.85 6.6-6.85h56.22c6.12 0 11.99 2.47 16.27 6.85 5.15 5.28 13.26 13.3 23.94 22.94 5.09 4.6 10.77 9.56 16.98 14.77z" fill="#c5f2f9"/><path d="m353.19 217.69c-.77 2.21-1.54 4.41-2.55 6.5-2.3 4.74-6.53 9.21-11.8 9.27-9.52.12-14.86-12.1-23.14-3.24-7.43 7.94-11.85 18.23-24.37 19.34-5.16.46-10.47-1.25-14.38-4.63-4.69-4.05-7.3-10.2-12.35-13.77-3.23-2.28-6.06-3.25-8.6-3.3v-54.73h40c6.12 0 11.99 2.47 16.27 6.85 5.15 5.28 13.26 13.3 23.94 22.94 5.09 4.6 10.77 9.56 16.98 14.77z" fill="#92eaff"/></g><path d="m336.21 202.92c-2.07 2.41-5.48 3.89-8.75 3.91-5.04.02-9.71-2.47-14.14-4.89-4.42-2.42-9.09-4.9-14.13-4.87-7.9.05-14.66 6.22-22.54 6.8-7.1.53-13.91-3.53-20.65-6.18-4.67-1.82-9.31-2.97-14-1.45-5.3 1.72-9.08 6.55-14.28 8.55-1.87.72-3.52.95-5.03.86-6.64-.42-10.45-7.23-17.32-7.2-7.28.04-11.21 9.34-18.7 8.84-3.74-.25-6.4-3.05-8.92-6.14 9.72-8.86 17.15-16.22 21.98-21.17 4.28-4.38 10.15-6.85 16.27-6.85h80c6.12 0 11.99 2.47 16.27 6.85 5.15 5.28 13.26 13.3 23.94 22.94z" fill="#fff"/><path d="m336.21 202.92c-2.07 2.41-5.48 3.89-8.75 3.91-5.04.02-9.71-2.47-14.14-4.89-4.42-2.42-9.09-4.9-14.13-4.87-7.9.05-14.66 6.22-22.54 6.8-7.1.53-13.91-3.53-20.65-6.18-4.67-1.82-9.31-2.97-14-1.45-5.3 1.72-9.08 6.55-14.28 8.55-1.87.72-3.52.95-5.03.86 4.93-10.76 8.22-19.93 10.49-25.67 1.74-4.38 4.12-6.85 6.6-6.85h56.22c6.12 0 11.99 2.47 16.27 6.85 5.15 5.28 13.26 13.3 23.94 22.94z" fill="#dff7fd"/><path d="m336.21 202.92c-2.07 2.41-5.48 3.89-8.75 3.91-5.04.02-9.71-2.47-14.14-4.89-4.42-2.42-9.09-4.9-14.13-4.87-7.9.05-14.66 6.22-22.54 6.8-7.1.53-13.91-3.53-20.65-6.18v-24.56h40c6.12 0 11.99 2.47 16.27 6.85 5.15 5.28 13.26 13.3 23.94 22.94z" fill="#c5f2f9"/><g><path d="m55.233 184.687c0-.054-.004-.108-.004-.162 0-9.926 8.046-17.972 17.972-17.972 2.358 0 4.608.459 6.671 1.285 3.985-7.14 11.611-11.97 20.368-11.97 11.372 0 20.838 8.144 22.895 18.917.613-.088 1.24-.136 1.877-.136 6.183 0 11.364 4.28 12.748 10.038z" fill="#fff"/><path d="m72.768 184.687c0-.031-.002-.062-.002-.093 0-5.707 4.627-10.334 10.334-10.334 1.356 0 2.65.264 3.836.739 2.292-4.105 6.676-6.883 11.712-6.883 6.539 0 11.982 4.683 13.165 10.878.353-.051.713-.078 1.079-.078 3.555 0 6.534 2.461 7.331 5.772h-47.455z" fill="#dff7fd"/></g><g><path d="m332.741 64.419c0-.039-.003-.077-.003-.115 0-7.061 5.724-12.785 12.784-12.785 1.677 0 3.278.326 4.745.914 2.835-5.079 8.259-8.515 14.489-8.515 8.09 0 14.823 5.793 16.287 13.457.436-.063.882-.097 1.335-.097 4.398 0 8.083 3.045 9.069 7.141z" fill="#fff"/><path d="m345.215 64.419c0-.022-.002-.044-.002-.066 0-4.06 3.291-7.351 7.351-7.351.965 0 1.885.188 2.729.525 1.63-2.92 4.749-4.896 8.332-4.896 4.652 0 8.524 3.331 9.365 7.738.251-.036.507-.056.768-.056 2.529 0 4.648 1.751 5.215 4.106z" fill="#dff7fd"/></g><g><path d="m469.726 190.604c0-.061.004-.12.004-.181 0-11.079-8.981-20.06-20.06-20.06-2.632 0-5.143.512-7.446 1.434-4.448-7.969-12.96-13.361-22.734-13.361-12.694 0-23.259 9.09-25.555 21.115-.685-.098-1.384-.152-2.095-.152-6.901 0-12.684 4.777-14.229 11.205z" fill="#fff"/><path d="m450.154 190.604c0-.035.003-.069.003-.104 0-6.371-5.164-11.535-11.535-11.535-1.513 0-2.957.294-4.282.824-2.558-4.582-7.452-7.683-13.073-7.683-7.299 0-13.374 5.227-14.695 12.142-.394-.056-.796-.087-1.205-.087-3.969 0-7.293 2.747-8.182 6.443z" fill="#dff7fd"/></g><g><path d="m272.862 136.396c0-.054-.004-.108-.004-.162 0-9.926 8.046-17.972 17.972-17.972 2.358 0 4.608.459 6.671 1.285 3.985-7.14 11.611-11.97 20.368-11.97 11.372 0 20.838 8.144 22.895 18.917.613-.088 1.24-.136 1.877-.136 6.183 0 11.363 4.28 12.748 10.038z" fill="#fff"/><path d="m290.397 136.396c0-.031-.002-.062-.002-.093 0-5.708 4.627-10.334 10.334-10.334 1.356 0 2.65.264 3.836.739 2.292-4.106 6.676-6.883 11.712-6.883 6.539 0 11.982 4.683 13.165 10.878.353-.05.713-.078 1.079-.078 3.555 0 6.534 2.461 7.331 5.773h-47.455z" fill="#dff7fd"/></g><g><path d="m225.321 95.619c0-.078.006-.154.006-.232 0-14.213-11.522-25.736-25.736-25.736-3.377 0-6.598.657-9.553 1.839-5.707-10.224-16.627-17.142-29.167-17.142-16.285 0-29.84 11.663-32.786 27.09-.878-.126-1.775-.195-2.688-.195-8.854 0-16.272 6.129-18.255 14.375h118.179z" fill="#fff"/><path d="m200.21 95.619c0-.045.003-.089.003-.133 0-8.173-6.626-14.799-14.799-14.799-1.942 0-3.794.378-5.493 1.058-3.282-5.879-9.561-9.857-16.772-9.857-9.364 0-17.158 6.706-18.852 15.577-.505-.072-1.021-.112-1.546-.112-5.092 0-9.357 3.524-10.497 8.266z" fill="#dff7fd"/></g><path d="m508.78 296.73c-.67 4.2-1.44 8.38-2.32 12.51-.82 3.88-1.73 7.73-2.73 11.54-.88 3.37-1.82 6.71-2.84 10.02h-489.77c-1.02-3.31-1.97-6.65-2.85-10.02-.99-3.82-1.9-7.67-2.72-11.55-1.44-6.83-2.61-13.76-3.5-20.78 3.81-2.66 8.54-4.03 13.18-3.63 7 .62 13.51 5.27 16.36 11.69 2.57-2.4 7.98-2.1 11.33-1.01s6 4.1 6.66 7.56c4.72-4.11 12.28-3.74 17.31-.02-.23-5.12 5.33-10 10.44-10.36 5.12-.35 10.11 3.87 10.61 8.98 3.79-3.63 10.59-2.24 13.88 1.84 3.25-5.82 10.74-9.41 17.39-8.99s12.88 4.93 15.37 11.11c4.75-5.39 13.38-4.44 18.81.27 4.03-4.9 10.83-6.03 16.72-3.65 1.11-4.05 5.2-7.88 9.35-8.46 4.16-.59 8.57 1.51 10.74 5.09 1.73-3.22 5.01-3.22 8.56-2.37 3.56.86 6.33 4.29 6.4 7.95 3.58-3.57 9.72-3.49 13.41-.04-.05-3.59 2.67-6.24 6.23-6.74 3.55-.5 7.28 1.95 8.22 5.41.43-4 3.45-7.59 7.38-8.46s8.32 1.01 10.4 4.46c1.17-1.65 3.09-2.6 5.2-3.01 1.92-.38 3.99-.32 5.8.04 3.8.76 7.02 3.9 7.87 7.68 6.77-3.24 16.69-2.77 23.13 1.06 1.46-5.04 5.43-8.61 10.67-8.89s10.48 3.04 12.47 7.9c3.49-4.43 9.04-6.1 14.2-3.83-.34-5.83 2.92-11.9 8.74-12.42 5.82-.53 11.63 4.15 12.34 9.95 5.15-4.28 14.89-2.57 19.11 2.63 1.97-4.81 6.61-7.86 11.8-7.57 5.18.29 9.98 4.13 11.41 9.12 5.99-3.36 14.47-1.17 18.76 4.21 3.64-6.67 12.27-10.19 18.67-6.09.94-4.59 5.64-9.04 10.12-10.42 4.48-1.39 9.67-.15 13.05 3.11 1.34-6.23 9.41-9.73 15.66-8.52 6.26 1.21 10.89 7.92 9.81 14.19 4.18-5.14 13.47-3.33 17.5 1.93 3.03-2.86 7.36-3.85 11.67-3.42z" fill="#43af3e"/></g><path d="m508.78 296.73c-.67 4.2-1.44 8.38-2.32 12.51-.82 3.88-1.73 7.73-2.73 11.54-.88 3.37-1.82 6.71-2.84 10.02h-244.89v-34.73c1.92-.38 3.99-.32 5.8.04 3.8.76 7.02 3.9 7.87 7.68 6.77-3.24 16.69-2.77 23.13 1.06 1.46-5.04 5.43-8.61 10.67-8.89s10.48 3.04 12.47 7.9c3.49-4.43 9.04-6.1 14.2-3.83-.34-5.83 2.92-11.9 8.74-12.42 5.82-.53 11.63 4.15 12.34 9.95 5.15-4.28 14.89-2.57 19.11 2.63 1.97-4.81 6.61-7.86 11.8-7.57 5.18.29 9.98 4.13 11.41 9.12 5.99-3.36 14.47-1.17 18.76 4.21 3.64-6.67 12.27-10.19 18.67-6.09.94-4.59 5.64-9.04 10.12-10.42 4.48-1.39 9.67-.15 13.05 3.11 1.34-6.23 9.41-9.73 15.66-8.52 6.26 1.21 10.89 7.92 9.81 14.19 4.18-5.14 13.47-3.33 17.5 1.93 3.03-2.86 7.36-3.85 11.67-3.42z" fill="#00a23e"/></g></svg>